<?xml version="1.0" encoding="UTF-8"?>
<svg xmlns="http://www.w3.org/2000/svg" version="1.1" width="200" height="200" viewBox="0 0 200 200"><rect x="0" y="0" width="200" height="200" fill="#ffffff"/><g transform="scale(6.452)"><g transform="translate(1,1)"><path fill-rule="evenodd" d="M10 0L10 2L11 2L11 0ZM12 0L12 1L13 1L13 0ZM14 0L14 2L18 2L18 3L17 3L17 4L14 4L14 3L13 3L13 2L12 2L12 4L14 4L14 5L11 5L11 6L10 6L10 4L11 4L11 3L8 3L8 4L9 4L9 5L8 5L8 7L9 7L9 8L6 8L6 9L7 9L7 10L6 10L6 11L7 11L7 10L9 10L9 9L10 9L10 11L11 11L11 9L12 9L12 10L15 10L15 11L14 11L14 12L13 12L13 11L12 11L12 13L14 13L14 15L15 15L15 17L16 17L16 18L14 18L14 17L12 17L12 15L13 15L13 14L11 14L11 15L10 15L10 14L9 14L9 13L11 13L11 12L9 12L9 11L8 11L8 13L7 13L7 12L6 12L6 13L7 13L7 14L5 14L5 13L4 13L4 12L5 12L5 11L4 11L4 10L5 10L5 8L0 8L0 10L1 10L1 12L0 12L0 13L1 13L1 12L2 12L2 13L3 13L3 15L2 15L2 14L0 14L0 15L2 15L2 16L0 16L0 21L1 21L1 18L2 18L2 20L4 20L4 21L5 21L5 19L7 19L7 20L6 20L6 21L7 21L7 20L8 20L8 19L9 19L9 16L10 16L10 18L11 18L11 17L12 17L12 18L13 18L13 19L12 19L12 21L13 21L13 20L14 20L14 21L16 21L16 22L15 22L15 23L14 23L14 24L15 24L15 23L16 23L16 24L17 24L17 25L18 25L18 26L20 26L20 25L21 25L21 27L19 27L19 28L21 28L21 27L22 27L22 28L23 28L23 29L24 29L24 28L25 28L25 26L24 26L24 25L27 25L27 28L26 28L26 29L27 29L27 28L28 28L28 26L29 26L29 24L28 24L28 22L29 22L29 21L28 21L28 20L29 20L29 19L28 19L28 20L25 20L25 19L26 19L26 18L25 18L25 17L27 17L27 18L29 18L29 17L27 17L27 16L25 16L25 15L26 15L26 14L29 14L29 13L27 13L27 12L29 12L29 11L27 11L27 10L29 10L29 9L28 9L28 8L27 8L27 10L26 10L26 11L27 11L27 12L26 12L26 13L24 13L24 12L25 12L25 11L24 11L24 10L25 10L25 9L26 9L26 8L25 8L25 9L24 9L24 8L23 8L23 9L22 9L22 8L21 8L21 6L20 6L20 7L19 7L19 6L18 6L18 5L21 5L21 4L18 4L18 3L21 3L21 0L19 0L19 1L15 1L15 0ZM8 1L8 2L9 2L9 1ZM19 1L19 2L20 2L20 1ZM14 5L14 6L13 6L13 7L12 7L12 6L11 6L11 7L12 7L12 9L13 9L13 8L14 8L14 9L15 9L15 10L16 10L16 12L19 12L19 11L21 11L21 12L20 12L20 14L16 14L16 13L15 13L15 12L14 12L14 13L15 13L15 14L16 14L16 16L18 16L18 17L17 17L17 18L18 18L18 19L16 19L16 21L17 21L17 22L16 22L16 23L17 23L17 24L18 24L18 25L20 25L20 23L19 23L19 24L18 24L18 23L17 23L17 22L19 22L19 21L20 21L20 20L24 20L24 19L25 19L25 18L24 18L24 17L25 17L25 16L24 16L24 17L23 17L23 16L22 16L22 15L23 15L23 14L24 14L24 13L23 13L23 12L24 12L24 11L22 11L22 10L19 10L19 11L17 11L17 8L18 8L18 9L19 9L19 7L18 7L18 6L17 6L17 8L16 8L16 6L15 6L15 5ZM9 6L9 7L10 7L10 6ZM14 6L14 7L15 7L15 6ZM10 8L10 9L11 9L11 8ZM20 8L20 9L21 9L21 8ZM1 9L1 10L3 10L3 9ZM23 9L23 10L24 10L24 9ZM2 11L2 12L3 12L3 11ZM21 12L21 13L22 13L22 14L21 14L21 15L20 15L20 17L18 17L18 18L20 18L20 17L22 17L22 18L23 18L23 17L22 17L22 16L21 16L21 15L22 15L22 14L23 14L23 13L22 13L22 12ZM4 14L4 15L5 15L5 14ZM6 15L6 16L5 16L5 18L7 18L7 19L8 19L8 16L9 16L9 15L8 15L8 16L7 16L7 15ZM6 16L6 17L7 17L7 16ZM2 17L2 18L3 18L3 17ZM14 19L14 20L15 20L15 19ZM18 19L18 20L17 20L17 21L18 21L18 20L19 20L19 19ZM9 20L9 21L8 21L8 23L11 23L11 24L8 24L8 29L9 29L9 27L10 27L10 29L11 29L11 26L10 26L10 25L12 25L12 26L13 26L13 27L12 27L12 29L13 29L13 28L14 28L14 29L16 29L16 28L17 28L17 29L18 29L18 28L17 28L17 26L15 26L15 25L12 25L12 23L13 23L13 22L11 22L11 21L10 21L10 20ZM21 21L21 24L24 24L24 21ZM25 21L25 24L27 24L27 22L28 22L28 21L27 21L27 22L26 22L26 21ZM22 22L22 23L23 23L23 22ZM22 25L22 26L23 26L23 27L24 27L24 26L23 26L23 25ZM14 27L14 28L15 28L15 27ZM0 0L0 7L7 7L7 0ZM1 1L1 6L6 6L6 1ZM2 2L2 5L5 5L5 2ZM22 0L22 7L29 7L29 0ZM23 1L23 6L28 6L28 1ZM24 2L24 5L27 5L27 2ZM0 22L0 29L7 29L7 22ZM1 23L1 28L6 28L6 23ZM2 24L2 27L5 27L5 24Z" fill="#000000"/></g></g></svg>
