<?xml version="1.0" encoding="UTF-8"?>
<svg xmlns="http://www.w3.org/2000/svg" version="1.1" width="200" height="200" viewBox="0 0 200 200"><rect x="0" y="0" width="200" height="200" fill="#ffffff"/><g transform="scale(6.452)"><g transform="translate(1,1)"><path fill-rule="evenodd" d="M8 0L8 1L9 1L9 2L10 2L10 3L11 3L11 1L14 1L14 2L12 2L12 4L11 4L11 5L10 5L10 4L9 4L9 5L10 5L10 8L9 8L9 6L8 6L8 8L9 8L9 10L10 10L10 11L9 11L9 13L10 13L10 12L11 12L11 13L13 13L13 11L12 11L12 10L14 10L14 13L15 13L15 15L14 15L14 14L10 14L10 15L11 15L11 16L12 16L12 15L14 15L14 17L10 17L10 16L9 16L9 15L8 15L8 17L10 17L10 18L11 18L11 19L12 19L12 21L14 21L14 24L13 24L13 25L12 25L12 26L13 26L13 25L15 25L15 26L14 26L14 27L12 27L12 28L11 28L11 29L13 29L13 28L15 28L15 29L16 29L16 28L15 28L15 27L16 27L16 25L17 25L17 24L19 24L19 25L18 25L18 26L19 26L19 25L20 25L20 27L21 27L21 25L23 25L23 26L24 26L24 27L22 27L22 28L25 28L25 26L24 26L24 25L25 25L25 20L26 20L26 22L27 22L27 23L28 23L28 24L27 24L27 25L26 25L26 26L27 26L27 27L26 27L26 28L27 28L27 27L28 27L28 28L29 28L29 25L28 25L28 24L29 24L29 23L28 23L28 21L29 21L29 18L28 18L28 21L27 21L27 18L26 18L26 19L25 19L25 17L26 17L26 16L27 16L27 17L28 17L28 16L27 16L27 15L26 15L26 16L25 16L25 15L23 15L23 12L25 12L25 13L24 13L24 14L25 14L25 13L26 13L26 12L25 12L25 11L27 11L27 9L26 9L26 10L25 10L25 9L24 9L24 10L25 10L25 11L23 11L23 10L22 10L22 11L21 11L21 10L20 10L20 9L18 9L18 8L17 8L17 6L16 6L16 7L15 7L15 6L14 6L14 5L12 5L12 4L15 4L15 5L17 5L17 4L18 4L18 5L20 5L20 4L21 4L21 2L20 2L20 1L18 1L18 0L16 0L16 1L17 1L17 2L16 2L16 3L17 3L17 4L15 4L15 3L14 3L14 2L15 2L15 1L14 1L14 0L11 0L11 1L9 1L9 0ZM17 2L17 3L18 3L18 4L20 4L20 2L19 2L19 3L18 3L18 2ZM11 5L11 7L12 7L12 9L10 9L10 10L12 10L12 9L14 9L14 10L15 10L15 9L16 9L16 8L15 8L15 7L14 7L14 6L13 6L13 7L12 7L12 5ZM18 6L18 7L19 7L19 6ZM20 6L20 7L21 7L21 6ZM13 7L13 8L14 8L14 7ZM0 8L0 10L1 10L1 9L2 9L2 10L3 10L3 12L2 12L2 11L0 11L0 12L2 12L2 13L0 13L0 15L1 15L1 14L2 14L2 13L3 13L3 16L4 16L4 14L5 14L5 13L4 13L4 12L6 12L6 13L7 13L7 14L6 14L6 15L5 15L5 17L4 17L4 18L5 18L5 19L4 19L4 20L3 20L3 19L2 19L2 18L3 18L3 17L1 17L1 16L0 16L0 21L2 21L2 20L3 20L3 21L5 21L5 20L6 20L6 21L7 21L7 20L6 20L6 19L7 19L7 18L5 18L5 17L7 17L7 16L6 16L6 15L7 15L7 14L8 14L8 13L7 13L7 12L6 12L6 11L8 11L8 9L7 9L7 8L6 8L6 9L5 9L5 8L3 8L3 9L2 9L2 8ZM22 8L22 9L23 9L23 8ZM28 8L28 9L29 9L29 8ZM3 9L3 10L5 10L5 9ZM6 9L6 10L7 10L7 9ZM16 10L16 11L15 11L15 12L16 12L16 13L18 13L18 12L19 12L19 14L17 14L17 17L16 17L16 19L15 19L15 17L14 17L14 18L12 18L12 19L13 19L13 20L14 20L14 19L15 19L15 20L18 20L18 21L16 21L16 24L15 24L15 25L16 25L16 24L17 24L17 23L18 23L18 22L19 22L19 20L18 20L18 19L19 19L19 18L17 18L17 17L19 17L19 16L20 16L20 19L21 19L21 20L24 20L24 18L23 18L23 17L25 17L25 16L23 16L23 15L21 15L21 16L20 16L20 15L19 15L19 14L20 14L20 12L19 12L19 11L20 11L20 10L19 10L19 11L18 11L18 10ZM16 11L16 12L18 12L18 11ZM28 12L28 15L29 15L29 12ZM15 15L15 16L16 16L16 15ZM21 16L21 19L23 19L23 18L22 18L22 16ZM9 20L9 21L8 21L8 22L9 22L9 24L8 24L8 26L9 26L9 25L11 25L11 20ZM21 21L21 24L24 24L24 21ZM12 22L12 23L13 23L13 22ZM22 22L22 23L23 23L23 22ZM19 23L19 24L20 24L20 23ZM27 25L27 26L28 26L28 25ZM10 26L10 27L11 27L11 26ZM8 27L8 29L9 29L9 27ZM20 28L20 29L21 29L21 28ZM0 0L0 7L7 7L7 0ZM1 1L1 6L6 6L6 1ZM2 2L2 5L5 5L5 2ZM22 0L22 7L29 7L29 0ZM23 1L23 6L28 6L28 1ZM24 2L24 5L27 5L27 2ZM0 22L0 29L7 29L7 22ZM1 23L1 28L6 28L6 23ZM2 24L2 27L5 27L5 24Z" fill="#000000"/></g></g></svg>
